<svg width="78" height="78" viewBox="0 0 78 78" fill="none" xmlns="http://www.w3.org/2000/svg">
<path d="M65.3089 14.0539C73.9329 26.8592 78.2449 41.2325 76.6769 57.8271C76.6769 57.8271 76.6769 57.9577 76.5462 57.9577C70.7969 62.2697 64.2636 65.5364 57.3383 67.627C57.2076 67.7577 57.2076 67.627 57.077 67.627C55.6396 65.5364 54.333 63.4457 53.157 61.2244C53.157 61.0937 53.157 61.0937 53.157 60.9631L53.2876 60.8324C55.3783 60.0484 57.3383 59.1337 59.2983 57.9577C59.2983 57.9577 59.429 57.9577 59.429 57.8271C59.429 57.6964 59.429 57.6964 59.2983 57.5657C58.9063 57.3044 58.5143 57.0431 58.1223 56.6511C57.9916 56.6511 57.9916 56.6511 57.861 56.6511C45.4476 62.4004 31.8583 62.4004 19.3144 56.6511C19.1837 56.6511 19.053 56.6511 19.053 56.6511C18.661 57.0431 18.269 57.3044 17.877 57.5657C17.7464 57.6964 17.7464 57.6964 17.7464 57.8271C17.7464 57.9577 17.7464 57.9577 17.877 57.9577C19.7064 59.1337 21.797 60.0484 23.8877 60.8324C23.8877 60.8324 23.8877 60.9631 24.0184 60.9631C24.0184 61.0937 24.0184 61.0937 24.0184 61.2244C22.8424 63.4457 21.5357 65.5364 20.0984 67.627C19.9677 67.627 19.837 67.7577 19.837 67.627C12.9117 65.5364 6.37839 62.2697 0.62907 57.9577C0.498404 57.9577 0.498404 57.8271 0.498404 57.8271C-0.80826 43.4538 1.93573 28.9498 11.8664 14.0539C11.8664 14.0539 11.8664 14.0539 11.997 14.0539C16.9624 11.7019 22.189 10.1339 27.5464 9.21921C27.677 9.08854 27.8077 9.21921 27.8077 9.21921C28.5917 10.5259 29.245 11.9632 29.7677 13.2699C35.6477 12.3552 41.5277 12.3552 47.4076 13.2699C47.9303 11.9632 48.5836 10.5259 49.3676 9.21921C49.3676 9.21921 49.4983 9.08854 49.629 9.21921C54.9863 10.1339 60.213 11.7019 65.1783 14.0539C65.3089 14.0539 65.3089 14.0539 65.3089 14.0539ZM25.8477 49.0724C29.637 49.0724 32.773 45.5444 32.773 41.3631C32.773 37.0511 29.7677 33.6538 25.8477 33.6538C22.0584 33.6538 18.9224 37.0511 18.9224 41.3631C18.9224 45.5444 22.0584 49.0724 25.8477 49.0724ZM51.3276 49.0724C55.2476 49.0724 58.253 45.5444 58.253 41.3631C58.3836 37.0511 55.2476 33.6538 51.3276 33.6538C47.5383 33.6538 44.533 37.0511 44.533 41.3631C44.533 45.5444 47.5383 49.0724 51.3276 49.0724Z" fill="white"/>
</svg>
