<svg width="78" height="78" viewBox="0 0 78 78" fill="none" xmlns="http://www.w3.org/2000/svg">
<g clip-path="url(#clip0_11_1221)">
<path d="M0.399902 38.8238C0.399902 57.8318 14.2239 73.5758 32.4639 76.8398L32.6908 76.6542C32.6792 76.6521 32.6675 76.6499 32.6559 76.6478V49.5758H23.0559V38.8238H32.6559V30.3758C32.6559 20.7758 38.7999 15.3998 47.6319 15.3998C50.3199 15.3998 53.3919 15.7838 56.0799 16.1678V25.9598H51.0879C46.4799 25.9598 45.3279 28.2638 45.3279 31.3358V38.8238H55.5039L53.7759 49.5758H45.3279V76.6478C45.211 76.6691 45.094 76.6898 44.977 76.7099L45.1359 76.8398C63.3759 73.5758 77.1999 57.8318 77.1999 38.8238C77.1999 17.7038 59.9199 0.423828 38.7999 0.423828C17.6799 0.423828 0.399902 17.7038 0.399902 38.8238Z" fill="white"/>
</g>
<defs>
<clipPath id="clip0_11_1221">
<rect width="76.8" height="76.8" fill="white" transform="translate(0.399902 0.423828)"/>
</clipPath>
</defs>
</svg>
