<svg width="77" height="78" viewBox="0 0 77 78" fill="none" xmlns="http://www.w3.org/2000/svg">
<g clip-path="url(#clip0_11_1222)">
<path d="M38.6033 0.423828C28.1744 0.423828 26.8656 0.469429 22.7695 0.655831C18.6815 0.843033 15.8911 1.49024 13.4494 2.43985C10.9238 3.42066 8.7814 4.73268 6.64697 6.8679C4.51095 9.00232 3.19894 11.1447 2.21493 13.6696C1.26292 16.112 0.614911 18.9032 0.430909 22.9897C0.247707 27.0857 0.199707 28.3953 0.199707 38.8242C0.199707 49.2532 0.246108 50.558 0.43171 54.654C0.619712 58.7421 1.26692 61.5325 2.21573 63.9741C3.19734 66.4997 4.50935 68.6422 6.64457 70.7766C8.7782 72.9126 10.9206 74.2278 13.4446 75.2086C15.8879 76.1583 18.6791 76.8055 22.7663 76.9927C26.8624 77.1791 28.1704 77.2247 38.5985 77.2247C49.0282 77.2247 50.333 77.1791 54.4291 76.9927C58.5171 76.8055 61.3107 76.1583 63.754 75.2086C66.2788 74.2278 68.418 72.9126 70.5516 70.7766C72.6877 68.6422 73.9997 66.4997 74.9837 63.9749C75.9277 61.5325 76.5757 58.7413 76.7677 54.6548C76.9517 50.5588 76.9997 49.2532 76.9997 38.8242C76.9997 28.3953 76.9517 27.0865 76.7677 22.9905C76.5757 18.9024 75.9277 16.112 74.9837 13.6704C73.9997 11.1447 72.6877 9.00232 70.5516 6.8679C68.4156 4.73188 66.2796 3.41986 63.7516 2.43985C61.3035 1.49024 58.5115 0.843033 54.4235 0.655831C50.3274 0.469429 49.0234 0.423828 38.5913 0.423828H38.6033ZM35.1585 7.3439C36.1809 7.3423 37.3217 7.3439 38.6033 7.3439C48.8562 7.3439 50.0714 7.3807 54.1203 7.56471C57.8643 7.73591 59.8963 8.36152 61.2499 8.88712C63.042 9.58313 64.3196 10.4151 65.6628 11.7592C67.0068 13.1032 67.8388 14.3832 68.5364 16.1752C69.062 17.5272 69.6884 19.5592 69.8588 23.3033C70.0428 27.3513 70.0828 28.5673 70.0828 38.8154C70.0828 49.0636 70.0428 50.2796 69.8588 54.3276C69.6876 58.0717 69.062 60.1037 68.5364 61.4557C67.8404 63.2477 67.0068 64.5237 65.6628 65.8669C64.3188 67.211 63.0428 68.043 61.2499 68.739C59.8979 69.267 57.8643 69.891 54.1203 70.0622C50.0722 70.2462 48.8562 70.2862 38.6033 70.2862C28.3496 70.2862 27.1344 70.2462 23.0863 70.0622C19.3423 69.8894 17.3103 69.2638 15.9559 68.7382C14.1639 68.0422 12.8838 67.2102 11.5398 65.8661C10.1958 64.5221 9.3638 63.2453 8.6662 61.4525C8.14059 60.1005 7.51418 58.0685 7.34378 54.3244C7.15978 50.2764 7.12298 49.0604 7.12298 38.8058C7.12298 28.5513 7.15978 27.3417 7.34378 23.2937C7.51498 19.5496 8.14059 17.5176 8.6662 16.164C9.3622 14.372 10.1958 13.092 11.5398 11.748C12.8838 10.4039 14.1639 9.57193 15.9559 8.87432C17.3095 8.34631 19.3423 7.72231 23.0863 7.55031C26.6288 7.3903 28.0016 7.3423 35.1585 7.3343V7.3439ZM59.1011 13.72C56.5571 13.72 54.4931 15.7816 54.4931 18.3264C54.4931 20.8704 56.5571 22.9345 59.1011 22.9345C61.6451 22.9345 63.7092 20.8704 63.7092 18.3264C63.7092 15.7824 61.6451 13.7184 59.1011 13.7184V13.72ZM38.6033 19.104C27.7128 19.104 18.8831 27.9337 18.8831 38.8242C18.8831 49.7148 27.7128 58.5405 38.6033 58.5405C49.4938 58.5405 58.3203 49.7148 58.3203 38.8242C58.3203 27.9337 49.4938 19.104 38.6033 19.104ZM38.6033 26.0241C45.6722 26.0241 51.4034 31.7546 51.4034 38.8242C51.4034 45.8931 45.6722 51.6244 38.6033 51.6244C31.5336 51.6244 25.8032 45.8931 25.8032 38.8242C25.8032 31.7546 31.5336 26.0241 38.6033 26.0241Z" fill="white"/>
</g>
<defs>
<clipPath id="clip0_11_1222">
<rect width="76.8023" height="76.8" fill="white" transform="translate(0.199951 0.423828)"/>
</clipPath>
</defs>
</svg>
