<svg width="171" height="52" viewBox="0 0 171 52" fill="none" xmlns="http://www.w3.org/2000/svg">
<path d="M0 26.009C0 11.659 10.66 0.64917 25.36 0.64917C29.5183 0.587028 33.6231 1.59226 37.2822 3.56885C40.9412 5.54544 44.0323 8.42739 46.26 11.9392L36.64 17.509C34.48 13.749 30.3 11.509 25.36 11.509C16.72 11.509 11.15 17.289 11.15 25.999C11.15 34.709 16.72 40.4893 25.36 40.4893C30.3 40.4893 34.55 38.2593 36.64 34.4893L46.26 40.0591C44.0452 43.5831 40.9568 46.4747 37.2948 48.4529C33.6328 50.4311 29.5214 51.4287 25.36 51.3491C10.66 51.3691 0 40.359 0 26.009Z" fill="white"/>
<path d="M113.91 13.34L88.2402 1.23999V13.47L113.91 25.31V13.34Z" fill="#DEF400"/>
<path d="M113.91 26.29L88.2402 38.44V50.76L113.91 38.67V26.29Z" fill="#DEF400"/>
<path d="M54.2603 13.34L79.9303 1.23999V13.47L54.2603 25.31V13.34Z" fill="#DEF400"/>
<path d="M54.2603 26.29L79.9303 38.44V50.76L54.2603 38.67V26.29Z" fill="#DEF400"/>
<path d="M170.66 50.38H159.51V22.0299L146.91 42.7201H145.66L133.05 22.0299V50.38H121.91V1.62H133.06L146.3 23.2799L159.53 1.62H170.68L170.66 50.38Z" fill="white"/>
</svg>
