<svg width="77" height="78" viewBox="0 0 77 78" fill="none" xmlns="http://www.w3.org/2000/svg">
<g clip-path="url(#clip0_11_1223)">
<path d="M38.7443 77.2238C30.9795 77.2238 27.409 76.2668 21.4774 73.0733C16.3381 70.3065 11.9073 66.6031 9.53553 61.2878C1.03726 42.248 3.61899 13.7719 21.7803 4.3083C31.0021 -0.496383 45.6307 -1.02436 54.9999 3.73878C63.9869 8.30781 68.3353 15.4359 71.9322 24.5815L64.5904 26.6791C61.1997 14.3611 53.03 7.53661 39.7693 7.53661C34.5288 7.53661 29.7732 8.06308 25.7767 10.0443C16.2172 14.781 12.3001 25.8928 11.9148 37.148C11.6346 45.3268 12.9564 53.5826 16.6062 59.5226C20.781 66.316 29.456 70.6124 37.5879 70.6124C45.2047 70.6124 51.3335 69.2883 56.0604 64.8545C62.4974 58.8156 63.8388 49.1858 55.6336 43.3146C53.1063 64.8847 23.8567 63.6542 23.8567 46.5096C23.8567 42.9497 25.2412 39.8431 28.0095 37.1903C33.5076 31.9219 41.78 33.4786 48.6793 33.3744C47.9519 30.1181 45.1836 25.4003 39.8698 25.4003C35.7751 25.4003 32.2469 26.4298 30.3503 29.6007L24.6347 25.8928C27.0555 21.3472 31.9365 18.3621 39.4249 18.3621C46.9133 18.3621 54.2438 23.2619 55.4591 32.5541L55.8345 35.4236C60.0674 37.1314 63.1145 40.3174 65.2302 43.5276C71.1784 52.5538 67.8988 64.1324 59.4043 71.3307C54.7695 75.2585 47.8816 77.2231 38.7451 77.2231L38.7443 77.2238ZM30.6811 46.3646C30.6811 49.8966 34.4283 52.538 38.0562 52.538C42.1033 52.538 44.886 51.3967 46.4034 49.114C47.9209 46.8314 48.68 44.082 48.68 40.8673C44.5227 39.8106 37.2896 39.053 33.4562 41.5901C31.651 42.7851 30.6819 44.3071 30.6819 46.3646H30.6811Z" fill="white"/>
</g>
<defs>
<clipPath id="clip0_11_1223">
<rect width="76.8" height="76.8" fill="white" transform="translate(0.00244141 0.423828)"/>
</clipPath>
</defs>
</svg>
