<svg width="834" height="137" viewBox="0 0 834 137" fill="none" xmlns="http://www.w3.org/2000/svg">
<path d="M0.967773 68.4427C0.967773 45.8118 17.8077 28.4573 40.9532 28.4573C54.9022 28.4573 67.2047 35.3804 73.9032 46.2328L58.7474 55.0176C55.342 49.0862 48.7463 45.5779 40.9719 45.5779C27.3503 45.5779 18.5187 54.6901 18.5187 68.424C18.5187 82.1579 27.3035 91.2701 40.9719 91.2701C48.765 91.2701 55.4729 87.7525 58.7474 81.8211L73.9032 90.6153C67.3544 101.486 55.0145 108.391 40.9532 108.391C17.8077 108.428 0.967773 91.0737 0.967773 68.4427Z" fill="white"/>
<path d="M179.181 48.4546L138.709 29.3788V48.6698L179.181 67.334V48.4546Z" fill="#DEF400"/>
<path d="M179.181 68.8778L138.709 88.0379V107.469L179.181 88.3934V68.8778Z" fill="#DEF400"/>
<path d="M85.1299 48.4546L125.602 29.3788V48.6698L85.1299 67.334V48.4546Z" fill="#DEF400"/>
<path d="M85.1299 68.8778L125.602 88.0379V107.469L85.1299 88.3934V68.8778Z" fill="#DEF400"/>
<path d="M258.516 68.4286C258.516 90.1802 242.368 106.87 221.169 106.87H190.408V29.9775H221.169C242.368 29.9775 258.516 46.6771 258.516 68.4286ZM241.601 68.4286C241.601 55.2467 233.256 46.911 221.169 46.911H207.987V89.9463H221.169C233.256 89.9556 241.601 81.6105 241.601 68.4286Z" fill="white"/>
<path d="M318.073 89.9558V106.87H269.742V29.9777H317.521V46.9018H287.312V59.6439H314.78V76.2967H287.312V89.9558H318.073Z" fill="white"/>
<path d="M439.302 28.8081V106.424H421.561V61.2959L401.491 94.2273H399.496L379.426 61.2959V106.424H361.686V28.8081H379.426L400.494 63.2918L421.561 28.8081H439.302ZM501.983 106.424L498.103 94.2273H469.274L465.393 106.424H445.989L472.378 28.8081H494.998L521.387 106.424H501.983ZM474.596 77.5953H492.78L483.688 49.0991L474.596 77.5953ZM553.547 107.976C537.248 107.976 526.825 100.215 522.5 88.7942L537.802 79.9238C540.574 86.3548 545.342 90.6791 554.101 90.6791C562.528 90.6791 564.635 87.3527 564.635 84.359C564.635 79.5911 560.2 77.7062 548.557 74.4906C537.026 71.2751 525.716 65.7311 525.716 50.8732C525.716 35.9044 538.356 27.2558 551.773 27.2558C564.524 27.2558 574.503 33.3542 580.158 44.7748L565.189 53.5343C562.528 47.9903 558.869 44.553 551.773 44.553C546.229 44.553 543.457 47.325 543.457 50.4297C543.457 53.9778 545.342 56.4172 557.428 60.0762C569.181 63.6244 582.376 67.727 582.376 84.1372C582.376 99.106 570.401 107.976 553.547 107.976ZM640.54 28.8081V45.8836H620.582V106.424H602.841V45.8836H582.882V28.8081H640.54ZM666.047 89.3486H697.093V106.424H648.306V28.8081H696.539V45.8836H666.047V58.7457H693.767V75.5994H666.047V89.3486ZM747.906 106.424L733.27 80.9217H724.843V106.424H707.103V28.8081H738.149C752.896 28.8081 764.76 40.6722 764.76 55.4193C764.76 64.955 758.994 73.6036 750.457 77.9279L766.978 106.424H747.906ZM724.843 45.4401V65.3985H738.149C743.028 65.3985 747.019 61.0742 747.019 55.4193C747.019 49.7644 743.028 45.4401 738.149 45.4401H724.843ZM801.403 107.976C785.103 107.976 774.681 100.215 770.356 88.7942L785.658 79.9238C788.43 86.3548 793.197 90.6791 801.957 90.6791C810.384 90.6791 812.491 87.3527 812.491 84.359C812.491 79.5911 808.055 77.7062 796.413 74.4906C784.881 71.2751 773.572 65.7311 773.572 50.8732C773.572 35.9044 786.212 27.2558 799.629 27.2558C812.38 27.2558 822.359 33.3542 828.014 44.7748L813.045 53.5343C810.384 47.9903 806.725 44.553 799.629 44.553C794.085 44.553 791.313 47.325 791.313 50.4297C791.313 53.9778 793.197 56.4172 805.283 60.0762C817.037 63.6244 830.231 67.727 830.231 84.1372C830.231 99.106 818.256 107.976 801.403 107.976Z" fill="white"/>
</svg>
